<?xml version="1.0" encoding="UTF-8" standalone="no"?>
<!-- Created with Inkscape (http://www.inkscape.org/) -->

<svg
   xmlns:dc="http://purl.org/dc/elements/1.1/"
   xmlns:cc="http://creativecommons.org/ns#"
   xmlns:rdf="http://www.w3.org/1999/02/22-rdf-syntax-ns#"
   xmlns:svg="http://www.w3.org/2000/svg"
   xmlns="http://www.w3.org/2000/svg"
   xmlns:sodipodi="http://sodipodi.sourceforge.net/DTD/sodipodi-0.dtd"
   xmlns:inkscape="http://www.inkscape.org/namespaces/inkscape"
   id="svg4328"
   version="1.1"
   inkscape:version="0.48.4 r9939"
   width="455"
   height="270"
   xml:space="preserve"
   sodipodi:docname="mereni2.pdf"><metadata
     id="metadata4334"><rdf:RDF><cc:Work
         rdf:about=""><dc:format>image/svg+xml</dc:format><dc:type
           rdf:resource="http://purl.org/dc/dcmitype/StillImage" /><dc:title></dc:title></cc:Work></rdf:RDF></metadata><defs
     id="defs4332"><clipPath
       clipPathUnits="userSpaceOnUse"
       id="clipPath4342"><path
         d="m 0,0.1 595.2,0 0,841.8 L 0,841.9 0,0.1 z"
         clip-rule="evenodd"
         id="path4344"
         inkscape:connector-curvature="0" /></clipPath><clipPath
       clipPathUnits="userSpaceOnUse"
       id="clipPath4350"><path
         d="m 50.3,566.6 436.4,0 0,221.3 -436.4,0 0,-221.3 z"
         clip-rule="evenodd"
         id="path4352"
         inkscape:connector-curvature="0" /></clipPath><clipPath
       clipPathUnits="userSpaceOnUse"
       id="clipPath4490"><path
         d="m -83,420 761,0 0,0.1 -761,0 0,-0.1 z"
         id="path4492"
         inkscape:connector-curvature="0" /></clipPath></defs><sodipodi:namedview
     pagecolor="#ffffff"
     bordercolor="#666666"
     borderopacity="1"
     objecttolerance="10"
     gridtolerance="10"
     guidetolerance="10"
     inkscape:pageopacity="0"
     inkscape:pageshadow="2"
     inkscape:window-width="647"
     inkscape:window-height="399"
     id="namedview4330"
     showgrid="false"
     fit-margin-top="0"
     fit-margin-left="0"
     fit-margin-right="0"
     fit-margin-bottom="0"
     inkscape:zoom="0.55122724"
     inkscape:cx="200.68856"
     inkscape:cy="80.275424"
     inkscape:window-x="2050"
     inkscape:window-y="404"
     inkscape:window-maximized="0"
     inkscape:current-layer="g4336" /><g
     id="g4336"
     inkscape:groupmode="layer"
     inkscape:label="mereni2"
     transform="matrix(1.25,0,0,-1.25,-114.375,982.125)"><g
       id="g4338"><g
         id="g4340"
         clip-path="url(#clipPath4342)" /></g><g
       id="g4346"><g
         id="g4348"
         clip-path="url(#clipPath4350)"><path
           d="m 273.5,569.7 -182,0 0,216 364,0 0,-216 -182,0 z"
           style="fill:#ffffff;fill-opacity:1;fill-rule:evenodd;stroke:none"
           id="path4354"
           inkscape:connector-curvature="0" /><g
           id="g4356"><path
             d="m 441,620.7 -308.6,0"
             style="fill:none;stroke:#d9d9d9;stroke-width:0.73574001;stroke-linecap:butt;stroke-linejoin:round;stroke-miterlimit:10;stroke-opacity:1;stroke-dasharray:none"
             id="path4358"
             inkscape:connector-curvature="0" /></g><g
           id="g4360"><path
             d="m 441,643.3 -308.6,0"
             style="fill:none;stroke:#d9d9d9;stroke-width:0.73574001;stroke-linecap:butt;stroke-linejoin:round;stroke-miterlimit:10;stroke-opacity:1;stroke-dasharray:none"
             id="path4362"
             inkscape:connector-curvature="0" /></g><g
           id="g4364"><path
             d="m 441,665.9 -308.6,0"
             style="fill:none;stroke:#d9d9d9;stroke-width:0.73574001;stroke-linecap:butt;stroke-linejoin:round;stroke-miterlimit:10;stroke-opacity:1;stroke-dasharray:none"
             id="path4366"
             inkscape:connector-curvature="0" /></g><g
           id="g4368"><path
             d="m 441,688.5 -308.6,0"
             style="fill:none;stroke:#d9d9d9;stroke-width:0.73574001;stroke-linecap:butt;stroke-linejoin:round;stroke-miterlimit:10;stroke-opacity:1;stroke-dasharray:none"
             id="path4370"
             inkscape:connector-curvature="0" /></g><g
           id="g4372"><path
             d="m 441,711.1 -308.6,0"
             style="fill:none;stroke:#d9d9d9;stroke-width:0.73574001;stroke-linecap:butt;stroke-linejoin:round;stroke-miterlimit:10;stroke-opacity:1;stroke-dasharray:none"
             id="path4374"
             inkscape:connector-curvature="0" /></g><g
           id="g4376"><path
             d="m 441,733.7 -308.6,0"
             style="fill:none;stroke:#d9d9d9;stroke-width:0.73574001;stroke-linecap:butt;stroke-linejoin:round;stroke-miterlimit:10;stroke-opacity:1;stroke-dasharray:none"
             id="path4378"
             inkscape:connector-curvature="0" /></g><g
           id="g4380"><path
             d="m 132.4,620.7 308.6,0"
             style="fill:none;stroke:#d9d9d9;stroke-width:0.73574001;stroke-linecap:butt;stroke-linejoin:round;stroke-miterlimit:10;stroke-opacity:1;stroke-dasharray:none"
             id="path4382"
             inkscape:connector-curvature="0" /></g><path
           d="m 357.7,620.7 18,0 0,95 -18,0 0,-95 z"
           style="fill:#5b9bd5;fill-opacity:1;fill-rule:evenodd;stroke:none"
           id="path4384"
           inkscape:connector-curvature="0" /><path
           d="m 254.9,620.7 18,0 0,37.9 -18,0 0,-37.9 z"
           style="fill:#5b9bd5;fill-opacity:1;fill-rule:evenodd;stroke:none"
           id="path4386"
           inkscape:connector-curvature="0" /><path
           d="m 152.1,620.7 17.9,0 0,66.4 -17.9,0 0,-66.4 z"
           style="fill:#5b9bd5;fill-opacity:1;fill-rule:evenodd;stroke:none"
           id="path4388"
           inkscape:connector-curvature="0" /><path
           d="m 380.6,620.7 17.9,0 0,90.4 -17.9,0 0,-90.4 z"
           style="fill:#ed7d31;fill-opacity:1;fill-rule:evenodd;stroke:none"
           id="path4390"
           inkscape:connector-curvature="0" /><path
           d="m 277.7,620.7 17.9,0 0,36.3 -17.9,0 0,-36.3 z"
           style="fill:#ed7d31;fill-opacity:1;fill-rule:evenodd;stroke:none"
           id="path4392"
           inkscape:connector-curvature="0" /><path
           d="m 174.8,620.7 18,0 0,0.9 -18,0 0,-0.9 z"
           style="fill:#ed7d31;fill-opacity:1;fill-rule:evenodd;stroke:none"
           id="path4394"
           inkscape:connector-curvature="0" /><path
           d="m 403.3,620.7 18,0 0,32.2 -18,0 0,-32.2 z"
           style="fill:#a5a5a5;fill-opacity:1;fill-rule:evenodd;stroke:none"
           id="path4396"
           inkscape:connector-curvature="0" /><path
           d="m 300.5,620.7 17.9,0 0,17.2 -17.9,0 0,-17.2 z"
           style="fill:#a5a5a5;fill-opacity:1;fill-rule:evenodd;stroke:none"
           id="path4398"
           inkscape:connector-curvature="0" /><path
           d="m 197.6,620.7 18,0 0,0.7 -18,0 0,-0.7 z"
           style="fill:#a5a5a5;fill-opacity:1;fill-rule:evenodd;stroke:none"
           id="path4400"
           inkscape:connector-curvature="0" /><g
           id="g4402"><text
             transform="matrix(1,0,0,-1,176.7,609.6)"
             id="text4404"><tspan
               style="font-size:9px;font-variant:normal;font-weight:normal;writing-mode:lr-tb;fill:#595959;fill-opacity:1;fill-rule:nonzero;stroke:none;font-family:Calibri;-inkscape-font-specification:Calibri"
               x="0 3.6989999 8.9910002"
               y="0"
               sodipodi:role="line"
               id="tspan4406">cpu</tspan></text>
</g><g
           id="g4408"><text
             transform="matrix(1,0,0,-1,269.1,609.6)"
             id="text4410"><tspan
               style="font-size:9px;font-variant:normal;font-weight:normal;writing-mode:lr-tb;fill:#595959;fill-opacity:1;fill-rule:nonzero;stroke:none;font-family:Calibri;-inkscape-font-specification:Calibri"
               x="0 3.6989999 8.9910002 16.479 21.672001 26.964001 29.961"
               y="0"
               sodipodi:role="line"
               id="tspan4412">compute</tspan></text>
</g><g
           id="g4414"><text
             transform="matrix(1,0,0,-1,378.3,609.6)"
             id="text4416"><tspan
               style="font-size:9px;font-variant:normal;font-weight:normal;writing-mode:lr-tb;fill:#595959;fill-opacity:1;fill-rule:nonzero;stroke:none;font-family:Calibri;-inkscape-font-specification:Calibri"
               x="0 4.4910002 9.684 14.976"
               y="0"
               sodipodi:role="line"
               id="tspan4418">geom</tspan></text>
</g><g
           id="g4420"><text
             transform="matrix(1,0,0,-1,125.1,617.7)"
             id="text4422"><tspan
               style="font-size:9px;font-variant:normal;font-weight:normal;writing-mode:lr-tb;fill:#595959;fill-opacity:1;fill-rule:nonzero;stroke:none;font-family:Calibri;-inkscape-font-specification:Calibri"
               x="0"
               y="0"
               id="tspan4424">0</tspan></text>
</g><g
           id="g4426"><text
             transform="matrix(1,0,0,-1,116.1,640.3)"
             id="text4428"><tspan
               style="font-size:9px;font-variant:normal;font-weight:normal;writing-mode:lr-tb;fill:#595959;fill-opacity:1;fill-rule:nonzero;stroke:none;font-family:Calibri;-inkscape-font-specification:Calibri"
               x="0 4.5 9"
               y="0"
               sodipodi:role="line"
               id="tspan4430">500</tspan></text>
</g><g
           id="g4432"><text
             transform="matrix(1,0,0,-1,111.6,662.9)"
             id="text4434"><tspan
               style="font-size:9px;font-variant:normal;font-weight:normal;writing-mode:lr-tb;fill:#595959;fill-opacity:1;fill-rule:nonzero;stroke:none;font-family:Calibri;-inkscape-font-specification:Calibri"
               x="0 4.5 9 13.5"
               y="0"
               sodipodi:role="line"
               id="tspan4436">1000</tspan></text>
</g><g
           id="g4438"><text
             transform="matrix(1,0,0,-1,111.6,685.5)"
             id="text4440"><tspan
               style="font-size:9px;font-variant:normal;font-weight:normal;writing-mode:lr-tb;fill:#595959;fill-opacity:1;fill-rule:nonzero;stroke:none;font-family:Calibri;-inkscape-font-specification:Calibri"
               x="0 4.5 9 13.5"
               y="0"
               sodipodi:role="line"
               id="tspan4442">1500</tspan></text>
</g><g
           id="g4444"><text
             transform="matrix(1,0,0,-1,111.6,708.1)"
             id="text4446"><tspan
               style="font-size:9px;font-variant:normal;font-weight:normal;writing-mode:lr-tb;fill:#595959;fill-opacity:1;fill-rule:nonzero;stroke:none;font-family:Calibri;-inkscape-font-specification:Calibri"
               x="0 4.5 9 13.5"
               y="0"
               sodipodi:role="line"
               id="tspan4448">2000</tspan></text>
</g><g
           id="g4450"><text
             transform="matrix(1,0,0,-1,111.6,730.7)"
             id="text4452"><tspan
               style="font-size:9px;font-variant:normal;font-weight:normal;writing-mode:lr-tb;fill:#595959;fill-opacity:1;fill-rule:nonzero;stroke:none;font-family:Calibri;-inkscape-font-specification:Calibri"
               x="0 4.5 9 13.5"
               y="0"
               sodipodi:role="line"
               id="tspan4454">2500</tspan></text>
</g><g
           id="g4456"><text
             transform="matrix(1,0,0,-1,228.5,759.9)"
             id="text4458"><tspan
               style="font-size:14px;font-variant:normal;font-weight:normal;writing-mode:lr-tb;fill:#595959;fill-opacity:1;fill-rule:nonzero;stroke:none;font-family:Calibri;-inkscape-font-specification:Calibri"
               x="0 6.6919999 14.28 20.972 23.968 31.458 38.948002 46.438 53.928001 59.933998 67.424004 74.914001 82.403999"
               y="0"
               sodipodi:role="line"
               id="tspan4460">FPS 1920x1080</tspan></text>
</g><path
           d="m 221.5,580.4 -2.7,0 0,5.4 5.4,0 0,-5.4 -2.7,0 z"
           style="fill:#5b9bd5;fill-opacity:1;fill-rule:evenodd;stroke:none"
           id="path4462"
           inkscape:connector-curvature="0" /><path
           d="m 259.7,580.4 -2.7,0 0,5.4 5.4,0 0,-5.4 -2.7,0 z"
           style="fill:#ed7d31;fill-opacity:1;fill-rule:evenodd;stroke:none"
           id="path4464"
           inkscape:connector-curvature="0" /><path
           d="m 298.6,580.4 -2.7,0 0,5.4 5.4,0 0,-5.4 -2.7,0 z"
           style="fill:#a5a5a5;fill-opacity:1;fill-rule:evenodd;stroke:none"
           id="path4466"
           inkscape:connector-curvature="0" /><g
           id="g4468"><text
             transform="matrix(1,0,0,-1,227,580.1)"
             id="text4470"><tspan
               style="font-size:9px;font-variant:normal;font-weight:normal;writing-mode:lr-tb;fill:#595959;fill-opacity:1;fill-rule:nonzero;stroke:none;font-family:Calibri;-inkscape-font-specification:Calibri"
               x="0 5.1929998 8.1809998 13.473 18.666"
               y="0"
               sodipodi:role="line"
               id="tspan4472">plane</tspan></text>
</g><g
           id="g4474"><text
             transform="matrix(1,0,0,-1,265.2,580.1)"
             id="text4476"><tspan
               style="font-size:9px;font-variant:normal;font-weight:normal;writing-mode:lr-tb;fill:#595959;fill-opacity:1;fill-rule:nonzero;stroke:none;font-family:Calibri;-inkscape-font-specification:Calibri"
               x="0 5.2919998 10.485 15.777 20.969999"
               y="0"
               sodipodi:role="line"
               id="tspan4478">bunny</tspan></text>
</g><g
           id="g4480"><text
             transform="matrix(1,0,0,-1,304.1,580.1)"
             id="text4482"><tspan
               style="font-size:9px;font-variant:normal;font-weight:normal;writing-mode:lr-tb;fill:#595959;fill-opacity:1;fill-rule:nonzero;stroke:none;font-family:Calibri;-inkscape-font-specification:Calibri"
               x="0 3.7980001 8.9910002 14.283 19.476"
               y="0"
               sodipodi:role="line"
               id="tspan4484">cubes</tspan></text>
</g></g></g><g
       id="g4486"><g
         id="g4488" /><g
         id="g4494"><g
           clip-path="url(#clipPath4490)"
           id="g4496"
           style="opacity:0.5"><g
             id="g4498" /></g></g></g></g></svg>