<?xml version="1.0" encoding="UTF-8" standalone="no"?>
<!-- Created with Inkscape (http://www.inkscape.org/) -->

<svg
   xmlns:dc="http://purl.org/dc/elements/1.1/"
   xmlns:cc="http://creativecommons.org/ns#"
   xmlns:rdf="http://www.w3.org/1999/02/22-rdf-syntax-ns#"
   xmlns:svg="http://www.w3.org/2000/svg"
   xmlns="http://www.w3.org/2000/svg"
   xmlns:sodipodi="http://sodipodi.sourceforge.net/DTD/sodipodi-0.dtd"
   xmlns:inkscape="http://www.inkscape.org/namespaces/inkscape"
   id="svg4156"
   version="1.1"
   inkscape:version="0.48.4 r9939"
   width="455"
   height="269.875"
   xml:space="preserve"
   sodipodi:docname="mereni.pdf"><metadata
     id="metadata4162"><rdf:RDF><cc:Work
         rdf:about=""><dc:format>image/svg+xml</dc:format><dc:type
           rdf:resource="http://purl.org/dc/dcmitype/StillImage" /><dc:title></dc:title></cc:Work></rdf:RDF></metadata><defs
     id="defs4160"><clipPath
       clipPathUnits="userSpaceOnUse"
       id="clipPath4170"><path
         d="m 0,0.1 595.2,0 0,841.8 L 0,841.9 0,0.1 z"
         clip-rule="evenodd"
         id="path4172"
         inkscape:connector-curvature="0" /></clipPath><clipPath
       clipPathUnits="userSpaceOnUse"
       id="clipPath4178"><path
         d="m 50.3,549.2 436.4,0 0,238.7 -436.4,0 0,-238.7 z"
         clip-rule="evenodd"
         id="path4180"
         inkscape:connector-curvature="0" /></clipPath><clipPath
       clipPathUnits="userSpaceOnUse"
       id="clipPath4318"><path
         d="m -83,420 761,0 0,0.1 -761,0 0,-0.1 z"
         id="path4320"
         inkscape:connector-curvature="0" /></clipPath></defs><sodipodi:namedview
     pagecolor="#ffffff"
     bordercolor="#666666"
     borderopacity="1"
     objecttolerance="10"
     gridtolerance="10"
     guidetolerance="10"
     inkscape:pageopacity="0"
     inkscape:pageshadow="2"
     inkscape:window-width="1858"
     inkscape:window-height="1058"
     id="namedview4158"
     showgrid="false"
     fit-margin-top="0"
     fit-margin-left="0"
     fit-margin-right="0"
     fit-margin-bottom="0"
     inkscape:zoom="1.2542755"
     inkscape:cx="330.82945"
     inkscape:cy="85.625"
     inkscape:window-x="1432"
     inkscape:window-y="-8"
     inkscape:window-maximized="1"
     inkscape:current-layer="g4164" /><g
     id="g4164"
     inkscape:groupmode="layer"
     inkscape:label="mereni"
     transform="matrix(1.25,0,0,-1.25,-117.375,973.625)"><g
       id="g4166"><g
         id="g4168"
         clip-path="url(#clipPath4170)" /></g><g
       id="g4174"><g
         id="g4176"
         clip-path="url(#clipPath4178)"><path
           d="m 275.9,563 -182,0 0,215.9 364,0 0,-215.9 -182,0 z"
           style="fill:#ffffff;fill-opacity:1;fill-rule:evenodd;stroke:none"
           id="path4182"
           inkscape:connector-curvature="0" /><g
           id="g4184"><path
             d="m 443.4,614 -308.6,0"
             style="fill:none;stroke:#d9d9d9;stroke-width:0.73574001;stroke-linecap:butt;stroke-linejoin:round;stroke-miterlimit:10;stroke-opacity:1;stroke-dasharray:none"
             id="path4186"
             inkscape:connector-curvature="0" /></g><g
           id="g4188"><path
             d="m 443.4,636.6 -308.6,0"
             style="fill:none;stroke:#d9d9d9;stroke-width:0.73574001;stroke-linecap:butt;stroke-linejoin:round;stroke-miterlimit:10;stroke-opacity:1;stroke-dasharray:none"
             id="path4190"
             inkscape:connector-curvature="0" /></g><g
           id="g4192"><path
             d="m 443.4,659.2 -308.6,0"
             style="fill:none;stroke:#d9d9d9;stroke-width:0.73574001;stroke-linecap:butt;stroke-linejoin:round;stroke-miterlimit:10;stroke-opacity:1;stroke-dasharray:none"
             id="path4194"
             inkscape:connector-curvature="0" /></g><g
           id="g4196"><path
             d="m 443.4,681.8 -308.6,0"
             style="fill:none;stroke:#d9d9d9;stroke-width:0.73574001;stroke-linecap:butt;stroke-linejoin:round;stroke-miterlimit:10;stroke-opacity:1;stroke-dasharray:none"
             id="path4198"
             inkscape:connector-curvature="0" /></g><g
           id="g4200"><path
             d="m 443.4,704.3 -308.6,0"
             style="fill:none;stroke:#d9d9d9;stroke-width:0.73574001;stroke-linecap:butt;stroke-linejoin:round;stroke-miterlimit:10;stroke-opacity:1;stroke-dasharray:none"
             id="path4202"
             inkscape:connector-curvature="0" /></g><g
           id="g4204"><path
             d="m 443.4,726.9 -308.6,0"
             style="fill:none;stroke:#d9d9d9;stroke-width:0.73574001;stroke-linecap:butt;stroke-linejoin:round;stroke-miterlimit:10;stroke-opacity:1;stroke-dasharray:none"
             id="path4206"
             inkscape:connector-curvature="0" /></g><g
           id="g4208"><path
             d="m 134.8,614 308.6,0"
             style="fill:none;stroke:#d9d9d9;stroke-width:0.73574001;stroke-linecap:butt;stroke-linejoin:round;stroke-miterlimit:10;stroke-opacity:1;stroke-dasharray:none"
             id="path4210"
             inkscape:connector-curvature="0" /></g><path
           d="m 360.2,614 17.9,0 0,98.5 -17.9,0 0,-98.5 z"
           style="fill:#5b9bd5;fill-opacity:1;fill-rule:evenodd;stroke:none"
           id="path4212"
           inkscape:connector-curvature="0" /><path
           d="m 257.3,614 18,0 0,41.6 -18,0 0,-41.6 z"
           style="fill:#5b9bd5;fill-opacity:1;fill-rule:evenodd;stroke:none"
           id="path4214"
           inkscape:connector-curvature="0" /><path
           d="m 154.5,614 17.9,0 0,60.8 -17.9,0 0,-60.8 z"
           style="fill:#5b9bd5;fill-opacity:1;fill-rule:evenodd;stroke:none"
           id="path4216"
           inkscape:connector-curvature="0" /><path
           d="m 383,614 17.9,0 0,98.3 -17.9,0 0,-98.3 z"
           style="fill:#ed7d31;fill-opacity:1;fill-rule:evenodd;stroke:none"
           id="path4218"
           inkscape:connector-curvature="0" /><path
           d="m 280.1,614 18,0 0,41.6 -18,0 0,-41.6 z"
           style="fill:#ed7d31;fill-opacity:1;fill-rule:evenodd;stroke:none"
           id="path4220"
           inkscape:connector-curvature="0" /><path
           d="m 177.3,614 17.9,0 0,0.8 -17.9,0 0,-0.8 z"
           style="fill:#ed7d31;fill-opacity:1;fill-rule:evenodd;stroke:none"
           id="path4222"
           inkscape:connector-curvature="0" /><path
           d="m 405.8,614 17.9,0 0,65.5 -17.9,0 0,-65.5 z"
           style="fill:#a5a5a5;fill-opacity:1;fill-rule:evenodd;stroke:none"
           id="path4224"
           inkscape:connector-curvature="0" /><path
           d="m 302.9,614 18,0 0,22.1 -18,0 0,-22.1 z"
           style="fill:#a5a5a5;fill-opacity:1;fill-rule:evenodd;stroke:none"
           id="path4226"
           inkscape:connector-curvature="0" /><path
           d="m 200.1,614 17.9,0 0,0.6 -17.9,0 0,-0.6 z"
           style="fill:#a5a5a5;fill-opacity:1;fill-rule:evenodd;stroke:none"
           id="path4228"
           inkscape:connector-curvature="0" /><g
           id="g4230"><text
             transform="matrix(1,0,0,-1,179.1,602.9)"
             id="text4232"><tspan
               style="font-size:9px;font-variant:normal;font-weight:normal;writing-mode:lr-tb;fill:#595959;fill-opacity:1;fill-rule:nonzero;stroke:none;font-family:Calibri;-inkscape-font-specification:Calibri"
               x="0 3.6989999 8.9910002"
               y="0"
               sodipodi:role="line"
               id="tspan4234">cpu</tspan></text>
</g><g
           id="g4236"><text
             transform="matrix(1,0,0,-1,271.5,602.9)"
             id="text4238"><tspan
               style="font-size:9px;font-variant:normal;font-weight:normal;writing-mode:lr-tb;fill:#595959;fill-opacity:1;fill-rule:nonzero;stroke:none;font-family:Calibri;-inkscape-font-specification:Calibri"
               x="0 3.6989999 8.9910002 16.479 21.672001 26.964001 29.961"
               y="0"
               sodipodi:role="line"
               id="tspan4240">compute</tspan></text>
</g><g
           id="g4242"><text
             transform="matrix(1,0,0,-1,380.7,602.9)"
             id="text4244"><tspan
               style="font-size:9px;font-variant:normal;font-weight:normal;writing-mode:lr-tb;fill:#595959;fill-opacity:1;fill-rule:nonzero;stroke:none;font-family:Calibri;-inkscape-font-specification:Calibri"
               x="0 4.4910002 9.783 14.976"
               y="0"
               sodipodi:role="line"
               id="tspan4246">geom</tspan></text>
</g><g
           id="g4248"><text
             transform="matrix(1,0,0,-1,127.5,610.9)"
             id="text4250"><tspan
               style="font-size:9px;font-variant:normal;font-weight:normal;writing-mode:lr-tb;fill:#595959;fill-opacity:1;fill-rule:nonzero;stroke:none;font-family:Calibri;-inkscape-font-specification:Calibri"
               x="0"
               y="0"
               id="tspan4252">0</tspan></text>
</g><g
           id="g4254"><text
             transform="matrix(1,0,0,-1,118.5,633.5)"
             id="text4256"><tspan
               style="font-size:9px;font-variant:normal;font-weight:normal;writing-mode:lr-tb;fill:#595959;fill-opacity:1;fill-rule:nonzero;stroke:none;font-family:Calibri;-inkscape-font-specification:Calibri"
               x="0 4.5 9"
               y="0"
               sodipodi:role="line"
               id="tspan4258">500</tspan></text>
</g><g
           id="g4260"><text
             transform="matrix(1,0,0,-1,114,656.1)"
             id="text4262"><tspan
               style="font-size:9px;font-variant:normal;font-weight:normal;writing-mode:lr-tb;fill:#595959;fill-opacity:1;fill-rule:nonzero;stroke:none;font-family:Calibri;-inkscape-font-specification:Calibri"
               x="0 4.5 9 13.5"
               y="0"
               sodipodi:role="line"
               id="tspan4264">1000</tspan></text>
</g><g
           id="g4266"><text
             transform="matrix(1,0,0,-1,114,678.8)"
             id="text4268"><tspan
               style="font-size:9px;font-variant:normal;font-weight:normal;writing-mode:lr-tb;fill:#595959;fill-opacity:1;fill-rule:nonzero;stroke:none;font-family:Calibri;-inkscape-font-specification:Calibri"
               x="0 4.5 9 13.5"
               y="0"
               sodipodi:role="line"
               id="tspan4270">1500</tspan></text>
</g><g
           id="g4272"><text
             transform="matrix(1,0,0,-1,114,701.3)"
             id="text4274"><tspan
               style="font-size:9px;font-variant:normal;font-weight:normal;writing-mode:lr-tb;fill:#595959;fill-opacity:1;fill-rule:nonzero;stroke:none;font-family:Calibri;-inkscape-font-specification:Calibri"
               x="0 4.5 9 13.5"
               y="0"
               sodipodi:role="line"
               id="tspan4276">2000</tspan></text>
</g><g
           id="g4278"><text
             transform="matrix(1,0,0,-1,114,723.9)"
             id="text4280"><tspan
               style="font-size:9px;font-variant:normal;font-weight:normal;writing-mode:lr-tb;fill:#595959;fill-opacity:1;fill-rule:nonzero;stroke:none;font-family:Calibri;-inkscape-font-specification:Calibri"
               x="0 4.5 9 13.5"
               y="0"
               sodipodi:role="line"
               id="tspan4282">2500</tspan></text>
</g><g
           id="g4284"><text
             transform="matrix(1,0,0,-1,237,749.2)"
             id="text4286"><tspan
               style="font-size:14px;font-variant:normal;font-weight:normal;writing-mode:lr-tb;fill:#595959;fill-opacity:1;fill-rule:nonzero;stroke:none;font-family:Calibri;-inkscape-font-specification:Calibri"
               x="0 6.6919999 14.182 20.972 23.968 31.458 38.948002 46.438 53.928001 59.933998 67.424004 74.914001"
               y="0"
               sodipodi:role="line"
               id="tspan4288">FPS 1024x768</tspan></text>
</g><path
           d="m 223.9,573.6 -2.7,0 0,5.4 5.4,0 0,-5.4 -2.7,0 z"
           style="fill:#5b9bd5;fill-opacity:1;fill-rule:evenodd;stroke:none"
           id="path4290"
           inkscape:connector-curvature="0" /><path
           d="m 262.1,573.6 -2.7,0 0,5.4 5.4,0 0,-5.4 -2.7,0 z"
           style="fill:#ed7d31;fill-opacity:1;fill-rule:evenodd;stroke:none"
           id="path4292"
           inkscape:connector-curvature="0" /><path
           d="m 301,573.6 -2.7,0 0,5.4 5.4,0 0,-5.4 -2.7,0 z"
           style="fill:#a5a5a5;fill-opacity:1;fill-rule:evenodd;stroke:none"
           id="path4294"
           inkscape:connector-curvature="0" /><g
           id="g4296"><text
             transform="matrix(1,0,0,-1,229.4,573.3)"
             id="text4298"><tspan
               style="font-size:9px;font-variant:normal;font-weight:normal;writing-mode:lr-tb;fill:#595959;fill-opacity:1;fill-rule:nonzero;stroke:none;font-family:Calibri;-inkscape-font-specification:Calibri"
               x="0 5.2919998 8.2799997 13.473 18.666"
               y="0"
               sodipodi:role="line"
               id="tspan4300">plane</tspan></text>
</g><g
           id="g4302"><text
             transform="matrix(1,0,0,-1,267.6,573.3)"
             id="text4304"><tspan
               style="font-size:9px;font-variant:normal;font-weight:normal;writing-mode:lr-tb;fill:#595959;fill-opacity:1;fill-rule:nonzero;stroke:none;font-family:Calibri;-inkscape-font-specification:Calibri"
               x="0 5.2919998 10.485 15.777 20.969999"
               y="0"
               sodipodi:role="line"
               id="tspan4306">bunny</tspan></text>
</g><g
           id="g4308"><text
             transform="matrix(1,0,0,-1,306.5,573.3)"
             id="text4310"><tspan
               style="font-size:9px;font-variant:normal;font-weight:normal;writing-mode:lr-tb;fill:#595959;fill-opacity:1;fill-rule:nonzero;stroke:none;font-family:Calibri;-inkscape-font-specification:Calibri"
               x="0 3.7980001 9.0900002 14.283 19.476"
               y="0"
               sodipodi:role="line"
               id="tspan4312">cubes</tspan></text>
</g></g></g><g
       id="g4314"><g
         id="g4316" /><g
         id="g4322"><g
           clip-path="url(#clipPath4318)"
           id="g4324"
           style="opacity:0.5"><g
             id="g4326" /></g></g></g></g></svg>