# Blender v2.72 (sub 0) OBJ File: ''
# www.blender.org
o Plane
v -1.000000 1.939872 1.000000
v 1.000000 1.939872 1.000000
v -1.000000 1.939872 -1.000000
v 1.000000 1.939872 -1.000000
vt 1.000000 0.000000
vt 1.000000 1.000000
vt 0.000000 1.000000
vt 0.000000 0.000000
vn 0.000000 1.000000 0.000000
s off
f 2/1/1 4/2/1 3/3/1
f 1/4/1 2/1/1 3/3/1
o Plane.001
v -1.000000 0.939872 4.000000
v 1.000000 0.939872 4.000000
v -1.000000 0.939872 2.000000
v 1.000000 0.939872 2.000000
vt 1.000000 0.000000
vt 1.000000 1.000000
vt 0.000000 1.000000
vt 0.000000 0.000000
vn 0.000000 1.000000 0.000000
s off
f 6/5/2 8/6/2 7/7/2
f 5/8/2 6/5/2 7/7/2
o Plane.002
v 2.000000 1.939872 4.000000
v 4.000000 1.939872 4.000000
v 2.000000 1.939872 2.000000
v 4.000000 1.939872 2.000000
vt 1.000000 0.000000
vt 1.000000 1.000000
vt 0.000000 1.000000
vt 0.000000 0.000000
vn 0.000000 1.000000 0.000000
s off
f 10/9/3 12/10/3 11/11/3
f 9/12/3 10/9/3 11/11/3
o Plane.003
v 2.000000 2.939872 1.000000
v 4.000000 2.939872 1.000000
v 2.000000 2.939872 -1.000000
v 4.000000 2.939872 -1.000000
vt 1.000000 0.000000
vt 1.000000 1.000000
vt 0.000000 1.000000
vt 0.000000 0.000000
vn 0.000000 1.000000 0.000000
s off
f 14/13/4 16/14/4 15/15/4
f 13/16/4 14/13/4 15/15/4
o Plane.004
v -1.000000 2.939872 -2.000000
v 1.000000 2.939872 -2.000000
v -1.000000 2.939872 -4.000000
v 1.000000 2.939872 -4.000000
vt 1.000000 0.000000
vt 1.000000 1.000000
vt 0.000000 1.000000
vt 0.000000 0.000000
vn 0.000000 1.000000 0.000000
s off
f 18/17/5 20/18/5 19/19/5
f 17/20/5 18/17/5 19/19/5
o Plane.005
v 2.000000 1.939872 -2.000000
v 4.000000 1.939872 -2.000000
v 2.000000 1.939872 -4.000000
v 4.000000 1.939872 -4.000000
vt 1.000000 0.000000
vt 1.000000 1.000000
vt 0.000000 1.000000
vt 0.000000 0.000000
vn 0.000000 1.000000 0.000000
s off
f 22/21/6 24/22/6 23/23/6
f 21/24/6 22/21/6 23/23/6
o Plane.009
v -4.000000 2.939872 1.000000
v -2.000000 2.939872 1.000000
v -4.000000 2.939872 -1.000000
v -2.000000 2.939872 -1.000000
vt 1.000000 0.000000
vt 1.000000 1.000000
vt 0.000000 1.000000
vt 0.000000 0.000000
vn 0.000000 1.000000 0.000000
s off
f 26/25/7 28/26/7 27/27/7
f 25/28/7 26/25/7 27/27/7
o Plane.010
v -4.000000 1.939872 -2.000000
v -2.000000 1.939872 -2.000000
v -4.000000 1.939872 -4.000000
v -2.000000 1.939872 -4.000000
vt 1.000000 0.000000
vt 1.000000 1.000000
vt 0.000000 1.000000
vt 0.000000 0.000000
vn 0.000000 1.000000 0.000000
s off
f 30/29/8 32/30/8 31/31/8
f 29/32/8 30/29/8 31/31/8
o Plane.011
v -4.000000 1.939872 4.000000
v -2.000000 1.939872 4.000000
v -4.000000 1.939872 2.000000
v -2.000000 1.939872 2.000000
vt 1.000000 0.000000
vt 1.000000 1.000000
vt 0.000000 1.000000
vt 0.000000 0.000000
vn 0.000000 1.000000 0.000000
s off
f 34/33/9 36/34/9 35/35/9
f 33/36/9 34/33/9 35/35/9
