# Blender v2.72 (sub 0) OBJ File: ''
# www.blender.org
o Plane
v 4.000000 -0.000000 4.000000
v 4.000000 0.000000 -4.000000
v -4.000000 0.000000 -4.000000
v -4.000000 -0.000000 4.000000
v 3.111111 -0.000000 4.000000
v 2.222222 -0.000000 4.000000
v 1.333333 -0.000000 4.000000
v 0.444444 -0.000000 4.000000
v -0.444445 -0.000000 4.000000
v -1.333333 -0.000000 4.000000
v -2.222222 -0.000000 4.000000
v -3.111111 -0.000000 4.000000
v -4.000000 0.000000 -3.111111
v -4.000000 0.000000 -2.222222
v -4.000000 0.000000 -1.333333
v -4.000000 0.000000 -0.444444
v -4.000000 -0.000000 0.444445
v -4.000000 -0.000000 1.333333
v -4.000000 -0.000000 2.222222
v -4.000000 -0.000000 3.111111
v 3.111111 0.000000 -4.000000
v 2.222222 0.000000 -4.000000
v 1.333333 0.000000 -4.000000
v 0.444444 0.000000 -4.000000
v -0.444445 0.000000 -4.000000
v -1.333333 0.000000 -4.000000
v -2.222222 0.000000 -4.000000
v -3.111111 0.000000 -4.000000
v 4.000000 -0.000000 3.111111
v 4.000000 -0.000000 2.222222
v 4.000000 -0.000000 1.333333
v 4.000000 -0.000000 0.444444
v 4.000000 0.000000 -0.444445
v 4.000000 0.000000 -1.333333
v 4.000000 0.000000 -2.222222
v 4.000000 0.000000 -3.111111
v 3.111111 -0.000000 3.111111
v 2.222222 -0.000000 2.222222
v 1.333333 -0.000000 1.333333
v 0.444444 -0.000000 0.444444
v -0.444445 0.000000 -0.444445
v -1.333333 0.000000 -1.333333
v -2.222222 0.000000 -2.222222
v -3.111111 0.000000 -3.111111
v -2.222222 0.000000 -3.111111
v -1.333333 0.000000 -2.222222
v -1.333333 0.000000 -3.111111
v -0.444445 0.000000 -1.333333
v -0.444445 0.000000 -2.222222
v -0.444445 0.000000 -3.111111
v 0.444444 0.000000 -0.444445
v 0.444444 0.000000 -1.333333
v 0.444444 0.000000 -2.222222
v 0.444444 0.000000 -3.111111
v 1.333333 -0.000000 0.444444
v 1.333333 0.000000 -0.444445
v 1.333333 0.000000 -1.333333
v 1.333333 0.000000 -2.222222
v 1.333333 0.000000 -3.111111
v 2.222222 -0.000000 1.333333
v 2.222222 -0.000000 0.444444
v 2.222222 0.000000 -0.444445
v 2.222222 0.000000 -1.333333
v 2.222222 0.000000 -2.222222
v 2.222222 0.000000 -3.111111
v 3.111111 -0.000000 2.222222
v 3.111111 -0.000000 1.333333
v 3.111111 -0.000000 0.444444
v 3.111111 0.000000 -0.444445
v 3.111111 0.000000 -1.333333
v 3.111111 0.000000 -2.222222
v 3.111111 0.000000 -3.111111
v -3.111111 0.000000 -2.222222
v -3.111111 0.000000 -1.333333
v -2.222222 0.000000 -1.333333
v -3.111111 0.000000 -0.444444
v -2.222222 0.000000 -0.444444
v -1.333333 0.000000 -0.444445
v -3.111111 -0.000000 0.444445
v -2.222222 -0.000000 0.444444
v -1.333333 -0.000000 0.444444
v -0.444444 -0.000000 0.444444
v -3.111111 -0.000000 1.333333
v -2.222222 -0.000000 1.333333
v -1.333333 -0.000000 1.333333
v -0.444444 -0.000000 1.333333
v 0.444444 -0.000000 1.333333
v -3.111111 -0.000000 2.222222
v -2.222222 -0.000000 2.222222
v -1.333333 -0.000000 2.222222
v -0.444444 -0.000000 2.222222
v 0.444445 -0.000000 2.222222
v 1.333333 -0.000000 2.222222
v -3.111111 -0.000000 3.111111
v -2.222222 -0.000000 3.111111
v -1.333333 -0.000000 3.111111
v -0.444444 -0.000000 3.111111
v 0.444444 -0.000000 3.111111
v 1.333333 -0.000000 3.111111
v 2.222222 -0.000000 3.111111
vt 0.000000 0.000000
vt 0.111111 0.000000
vt 0.111111 0.111111
vt 0.000000 1.000000
vt 0.000000 0.888889
vt 0.111111 1.000000
vt 0.888889 0.888889
vt 1.000000 0.888889
vt 1.000000 1.000000
vt 0.777778 0.777778
vt 0.888889 0.777778
vt 0.666667 0.666667
vt 0.777778 0.666667
vt 0.555556 0.555556
vt 0.666667 0.555556
vt 0.444444 0.444444
vt 0.555556 0.444444
vt 0.333333 0.333333
vt 0.444444 0.333333
vt 0.222222 0.222222
vt 0.333333 0.222222
vt 0.222222 0.111111
vt 1.000000 0.777778
vt 0.888889 0.666667
vt 1.000000 0.666667
vt 0.777778 0.555556
vt 0.888889 0.555556
vt 1.000000 0.555556
vt 0.666667 0.444444
vt 0.777778 0.444444
vt 0.888889 0.444444
vt 1.000000 0.444444
vt 0.555556 0.333333
vt 0.666667 0.333333
vt 0.777778 0.333333
vt 0.888889 0.333333
vt 1.000000 0.333333
vt 0.444444 0.222222
vt 0.555556 0.222222
vt 0.666667 0.222222
vt 0.777778 0.222222
vt 0.888889 0.222222
vt 1.000000 0.222222
vt 0.333333 0.111111
vt 0.444444 0.111111
vt 0.555556 0.111111
vt 0.666667 0.111111
vt 0.777778 0.111111
vt 0.888889 0.111111
vt 1.000000 0.111111
vt 0.222222 0.000000
vt 0.333333 0.000000
vt 0.444444 0.000000
vt 0.555556 0.000000
vt 0.666667 0.000000
vt 0.777778 0.000000
vt 0.888889 0.000000
vt 1.000000 0.000000
vt 0.888889 1.000000
vt 0.777778 1.000000
vt 0.777778 0.888889
vt 0.666667 1.000000
vt 0.666667 0.888889
vt 0.555556 1.000000
vt 0.555556 0.888889
vt 0.444444 1.000000
vt 0.444444 0.888889
vt 0.333333 1.000000
vt 0.333333 0.888889
vt 0.222222 1.000000
vt 0.222222 0.888889
vt 0.111111 0.888889
vt 0.666667 0.777778
vt 0.555556 0.777778
vt 0.555556 0.666667
vt 0.444444 0.777778
vt 0.444444 0.666667
vt 0.444444 0.555556
vt 0.333333 0.777778
vt 0.333333 0.666667
vt 0.333333 0.555556
vt 0.333333 0.444444
vt 0.222222 0.777778
vt 0.222222 0.666667
vt 0.222222 0.555556
vt 0.222222 0.444444
vt 0.222222 0.333333
vt 0.111111 0.777778
vt 0.111111 0.666667
vt 0.111111 0.555556
vt 0.111111 0.444444
vt 0.111111 0.333333
vt 0.111111 0.222222
vt 0.000000 0.777778
vt 0.000000 0.666667
vt 0.000000 0.555556
vt 0.000000 0.444444
vt 0.000000 0.333333
vt 0.000000 0.222222
vt 0.000000 0.111111
vn 0.000000 1.000000 0.000000
s off
f 1/1/1 29/2/1 37/3/1
f 4/4/1 12/5/1 20/6/1
f 44/7/1 28/8/1 3/9/1
f 43/10/1 45/11/1 44/7/1
f 42/12/1 46/13/1 43/10/1
f 41/14/1 48/15/1 42/12/1
f 40/16/1 51/17/1 41/14/1
f 39/18/1 55/19/1 40/16/1
f 38/20/1 60/21/1 39/18/1
f 37/3/1 66/22/1 38/20/1
f 44/7/1 45/11/1 28/8/1
f 45/11/1 27/23/1 28/8/1
f 43/10/1 46/13/1 45/11/1
f 46/13/1 47/24/1 45/11/1
f 45/11/1 47/24/1 27/23/1
f 47/24/1 26/25/1 27/23/1
f 42/12/1 48/15/1 46/13/1
f 48/15/1 49/26/1 46/13/1
f 46/13/1 49/26/1 47/24/1
f 49/26/1 50/27/1 47/24/1
f 47/24/1 50/27/1 26/25/1
f 50/27/1 25/28/1 26/25/1
f 41/14/1 51/17/1 48/15/1
f 51/17/1 52/29/1 48/15/1
f 48/15/1 52/29/1 49/26/1
f 52/29/1 53/30/1 49/26/1
f 49/26/1 53/30/1 50/27/1
f 53/30/1 54/31/1 50/27/1
f 50/27/1 54/31/1 25/28/1
f 54/31/1 24/32/1 25/28/1
f 40/16/1 55/19/1 51/17/1
f 55/19/1 56/33/1 51/17/1
f 51/17/1 56/33/1 52/29/1
f 56/33/1 57/34/1 52/29/1
f 52/29/1 57/34/1 53/30/1
f 57/34/1 58/35/1 53/30/1
f 53/30/1 58/35/1 54/31/1
f 58/35/1 59/36/1 54/31/1
f 54/31/1 59/36/1 24/32/1
f 59/36/1 23/37/1 24/32/1
f 39/18/1 60/21/1 55/19/1
f 60/21/1 61/38/1 55/19/1
f 55/19/1 61/38/1 56/33/1
f 61/38/1 62/39/1 56/33/1
f 56/33/1 62/39/1 57/34/1
f 62/39/1 63/40/1 57/34/1
f 57/34/1 63/40/1 58/35/1
f 63/40/1 64/41/1 58/35/1
f 58/35/1 64/41/1 59/36/1
f 64/41/1 65/42/1 59/36/1
f 59/36/1 65/42/1 23/37/1
f 65/42/1 22/43/1 23/37/1
f 38/20/1 66/22/1 60/21/1
f 66/22/1 67/44/1 60/21/1
f 60/21/1 67/44/1 61/38/1
f 67/44/1 68/45/1 61/38/1
f 61/38/1 68/45/1 62/39/1
f 68/45/1 69/46/1 62/39/1
f 62/39/1 69/46/1 63/40/1
f 69/46/1 70/47/1 63/40/1
f 63/40/1 70/47/1 64/41/1
f 70/47/1 71/48/1 64/41/1
f 64/41/1 71/48/1 65/42/1
f 71/48/1 72/49/1 65/42/1
f 65/42/1 72/49/1 22/43/1
f 72/49/1 21/50/1 22/43/1
f 37/3/1 29/2/1 66/22/1
f 29/2/1 30/51/1 66/22/1
f 66/22/1 30/51/1 67/44/1
f 30/51/1 31/52/1 67/44/1
f 67/44/1 31/52/1 68/45/1
f 31/52/1 32/53/1 68/45/1
f 68/45/1 32/53/1 69/46/1
f 32/53/1 33/54/1 69/46/1
f 69/46/1 33/54/1 70/47/1
f 33/54/1 34/55/1 70/47/1
f 70/47/1 34/55/1 71/48/1
f 34/55/1 35/56/1 71/48/1
f 71/48/1 35/56/1 72/49/1
f 35/56/1 36/57/1 72/49/1
f 72/49/1 36/57/1 21/50/1
f 36/57/1 2/58/1 21/50/1
f 13/59/1 44/7/1 3/9/1
f 14/60/1 73/61/1 13/59/1
f 15/62/1 74/63/1 14/60/1
f 16/64/1 76/65/1 15/62/1
f 17/66/1 79/67/1 16/64/1
f 18/68/1 83/69/1 17/66/1
f 19/70/1 88/71/1 18/68/1
f 20/6/1 94/72/1 19/70/1
f 13/59/1 73/61/1 44/7/1
f 73/61/1 43/10/1 44/7/1
f 14/60/1 74/63/1 73/61/1
f 74/63/1 75/73/1 73/61/1
f 73/61/1 75/73/1 43/10/1
f 75/73/1 42/12/1 43/10/1
f 15/62/1 76/65/1 74/63/1
f 76/65/1 77/74/1 74/63/1
f 74/63/1 77/74/1 75/73/1
f 77/74/1 78/75/1 75/73/1
f 75/73/1 78/75/1 42/12/1
f 78/75/1 41/14/1 42/12/1
f 16/64/1 79/67/1 76/65/1
f 79/67/1 80/76/1 76/65/1
f 76/65/1 80/76/1 77/74/1
f 80/76/1 81/77/1 77/74/1
f 77/74/1 81/77/1 78/75/1
f 81/77/1 82/78/1 78/75/1
f 78/75/1 82/78/1 41/14/1
f 82/78/1 40/16/1 41/14/1
f 17/66/1 83/69/1 79/67/1
f 83/69/1 84/79/1 79/67/1
f 79/67/1 84/79/1 80/76/1
f 84/79/1 85/80/1 80/76/1
f 80/76/1 85/80/1 81/77/1
f 85/80/1 86/81/1 81/77/1
f 81/77/1 86/81/1 82/78/1
f 86/81/1 87/82/1 82/78/1
f 82/78/1 87/82/1 40/16/1
f 87/82/1 39/18/1 40/16/1
f 18/68/1 88/71/1 83/69/1
f 88/71/1 89/83/1 83/69/1
f 83/69/1 89/83/1 84/79/1
f 89/83/1 90/84/1 84/79/1
f 84/79/1 90/84/1 85/80/1
f 90/84/1 91/85/1 85/80/1
f 85/80/1 91/85/1 86/81/1
f 91/85/1 92/86/1 86/81/1
f 86/81/1 92/86/1 87/82/1
f 92/86/1 93/87/1 87/82/1
f 87/82/1 93/87/1 39/18/1
f 93/87/1 38/20/1 39/18/1
f 19/70/1 94/72/1 88/71/1
f 94/72/1 95/88/1 88/71/1
f 88/71/1 95/88/1 89/83/1
f 95/88/1 96/89/1 89/83/1
f 89/83/1 96/89/1 90/84/1
f 96/89/1 97/90/1 90/84/1
f 90/84/1 97/90/1 91/85/1
f 97/90/1 98/91/1 91/85/1
f 91/85/1 98/91/1 92/86/1
f 98/91/1 99/92/1 92/86/1
f 92/86/1 99/92/1 93/87/1
f 99/92/1 100/93/1 93/87/1
f 93/87/1 100/93/1 38/20/1
f 100/93/1 37/3/1 38/20/1
f 20/6/1 12/5/1 94/72/1
f 12/5/1 11/94/1 94/72/1
f 94/72/1 11/94/1 95/88/1
f 11/94/1 10/95/1 95/88/1
f 95/88/1 10/95/1 96/89/1
f 10/95/1 9/96/1 96/89/1
f 96/89/1 9/96/1 97/90/1
f 9/96/1 8/97/1 97/90/1
f 97/90/1 8/97/1 98/91/1
f 8/97/1 7/98/1 98/91/1
f 98/91/1 7/98/1 99/92/1
f 7/98/1 6/99/1 99/92/1
f 99/92/1 6/99/1 100/93/1
f 6/99/1 5/100/1 100/93/1
f 100/93/1 5/100/1 37/3/1
f 5/100/1 1/1/1 37/3/1
